<svg width="129" height="129" viewBox="0 0 129 129" fill="none" xmlns="http://www.w3.org/2000/svg">
<path d="M60.8021 8.96707C62.163 5.66703 66.837 5.66703 68.1979 8.96707L76.2991 28.6118C77.1432 30.6586 79.4894 31.6304 81.5335 30.78L101.153 22.6175C104.449 21.2463 107.754 24.5513 106.383 27.8471L98.22 47.4665C97.3696 49.5106 98.3414 51.8568 100.388 52.7009L120.033 60.8021C123.333 62.163 123.333 66.837 120.033 68.1979L100.388 76.2991C98.3414 77.1432 97.3696 79.4894 98.22 81.5335L106.383 101.153C107.754 104.449 104.449 107.754 101.153 106.383L81.5335 98.22C79.4894 97.3696 77.1432 98.3414 76.2991 100.388L68.1979 120.033C66.837 123.333 62.163 123.333 60.8021 120.033L52.7009 100.388C51.8568 98.3414 49.5106 97.3696 47.4665 98.22L27.8471 106.383C24.5513 107.754 21.2463 104.449 22.6175 101.153L30.78 81.5335C31.6304 79.4894 30.6586 77.1432 28.6118 76.2991L8.96707 68.1979C5.66703 66.837 5.66703 62.163 8.96707 60.8021L28.6118 52.7009C30.6586 51.8568 31.6304 49.5106 30.78 47.4665L22.6175 27.8471C21.2463 24.5513 24.5513 21.2463 27.8471 22.6175L47.4665 30.78C49.5106 31.6304 51.8568 30.6586 52.7009 28.6118L60.8021 8.96707Z" fill="#D8CACA"/>
<path d="M59 70.7031C59 65.1719 60.3125 63.4844 62.8438 61.8438C64.9531 60.4844 66.5469 59.3125 66.5469 57.3906C66.5469 55.6562 65.1406 54.4844 63.4062 54.4844C61.5781 54.4844 59.9844 55.8438 59.9375 57.8594H51.6875C51.7812 50.6406 57.0781 47.5938 63.4531 47.5938C70.4844 47.5938 75.6406 50.7344 75.6406 56.9219C75.6406 60.9062 73.4844 63.2969 70.25 65.1719C67.8125 66.625 66.5938 67.9844 66.5938 70.7031V71.4531H59V70.7031ZM62.8906 82.5156C60.3594 82.5156 58.2969 80.5 58.3438 77.9688C58.2969 75.4844 60.3594 73.4688 62.8906 73.4688C65.2812 73.4688 67.4375 75.4844 67.4375 77.9688C67.4375 80.5 65.2812 82.5156 62.8906 82.5156Z" fill="#786969"/>
</svg>
