<svg width="122" height="122" viewBox="0 0 122 122" fill="none" xmlns="http://www.w3.org/2000/svg">
<path d="M18.7021 26.2502C22.8782 21.7996 29.0082 24.708 33.1577 21.1149C38.2974 16.6644 43.4531 5.46405 53.0902 4.09465C62.7272 2.72525 62.39 16.6644 68.1723 16.6644C73.9545 16.6644 81.3429 12.2138 88.4101 16.6644C95.4772 21.1149 90.6587 28.6466 99.9745 33.4395C109.29 38.2324 117 41.6559 117 47.8182C117 53.9805 111.218 58.4312 110.575 63.5664C109.933 68.7017 116.987 72.8097 115.715 79.3144C114.444 85.8192 110.575 84.7921 106.72 91.2968C102.866 97.8014 105.436 101.225 99.3321 104.55C93.2286 107.875 86.1614 100.882 80.058 104.991C73.9545 109.099 65.2812 118 60.4626 118C55.6441 118 45.0433 104.991 39.2611 104.991C33.4789 104.991 25.448 109.784 18.7021 104.991C11.9561 100.198 15.4897 86.1614 13.8836 81.0262C12.2774 75.8909 2.31909 70.071 4.2465 61.5122C6.17391 52.9535 13.2411 53.6383 15.4897 46.4489C17.7384 39.2595 14.5259 30.7009 18.7021 26.2502Z" fill="#D8CACA"/>
<path d="M56 68.7031C56 63.1719 57.3125 61.4844 59.8438 59.8438C61.9531 58.4844 63.5469 57.3125 63.5469 55.3906C63.5469 53.6562 62.1406 52.4844 60.4062 52.4844C58.5781 52.4844 56.9844 53.8438 56.9375 55.8594H48.6875C48.7812 48.6406 54.0781 45.5938 60.4531 45.5938C67.4844 45.5938 72.6406 48.7344 72.6406 54.9219C72.6406 58.9062 70.4844 61.2969 67.25 63.1719C64.8125 64.625 63.5938 65.9844 63.5938 68.7031V69.4531H56V68.7031ZM59.8906 80.5156C57.3594 80.5156 55.2969 78.5 55.3438 75.9688C55.2969 73.4844 57.3594 71.4688 59.8906 71.4688C62.2812 71.4688 64.4375 73.4844 64.4375 75.9688C64.4375 78.5 62.2812 80.5156 59.8906 80.5156Z" fill="#786969"/>
</svg>
