<svg width="140" height="140" viewBox="0 0 140 140" fill="none" xmlns="http://www.w3.org/2000/svg">
<path d="M53.3194 19.3974C62.0974 9.18979 77.9026 9.18979 86.6806 19.3974L94.1746 28.112C96.4055 30.7063 99.2108 32.7445 102.368 34.0645L112.971 38.4988C125.392 43.6927 130.276 58.7245 123.281 70.2271L117.308 80.0473C115.53 82.9707 114.459 86.2685 114.179 89.6787L113.238 101.134C112.137 114.551 99.35 123.842 86.2486 120.743L75.0635 118.098C71.7338 117.31 68.2662 117.31 64.9365 118.098L53.7514 120.743C40.65 123.842 27.8633 114.551 26.7617 101.134L25.8212 89.6787C25.5412 86.2685 24.4697 82.9707 22.6918 80.0473L16.7195 70.2271C9.724 58.7245 14.6081 43.6927 27.0287 38.4988L37.6325 34.0645C40.7892 32.7445 43.5945 30.7063 45.8254 28.112L53.3194 19.3974Z" fill="#D8CACA"/>
<path d="M65 75.7031C65 70.1719 66.3125 68.4844 68.8438 66.8438C70.9531 65.4844 72.5469 64.3125 72.5469 62.3906C72.5469 60.6562 71.1406 59.4844 69.4062 59.4844C67.5781 59.4844 65.9844 60.8438 65.9375 62.8594H57.6875C57.7812 55.6406 63.0781 52.5938 69.4531 52.5938C76.4844 52.5938 81.6406 55.7344 81.6406 61.9219C81.6406 65.9062 79.4844 68.2969 76.25 70.1719C73.8125 71.625 72.5938 72.9844 72.5938 75.7031V76.4531H65V75.7031ZM68.8906 87.5156C66.3594 87.5156 64.2969 85.5 64.3438 82.9688C64.2969 80.4844 66.3594 78.4688 68.8906 78.4688C71.2812 78.4688 73.4375 80.4844 73.4375 82.9688C73.4375 85.5 71.2812 87.5156 68.8906 87.5156Z" fill="#786969"/>
</svg>
