<svg width="122" height="122" viewBox="0 0 122 122" fill="none" xmlns="http://www.w3.org/2000/svg">
<path d="M105 72.8345C105 96.9503 85.5244 116.5 61.5 116.5C37.4756 116.5 18 96.9503 18 72.8345C18 48.7187 42.4382 5.5 61.5 5.5C80.5618 5.5 105 48.7187 105 72.8345Z" fill="#D8CACA"/>
<path d="M57 66.7031C57 61.1719 58.3125 59.4844 60.8438 57.8438C62.9531 56.4844 64.5469 55.3125 64.5469 53.3906C64.5469 51.6562 63.1406 50.4844 61.4062 50.4844C59.5781 50.4844 57.9844 51.8438 57.9375 53.8594H49.6875C49.7812 46.6406 55.0781 43.5938 61.4531 43.5938C68.4844 43.5938 73.6406 46.7344 73.6406 52.9219C73.6406 56.9062 71.4844 59.2969 68.25 61.1719C65.8125 62.625 64.5938 63.9844 64.5938 66.7031V67.4531H57V66.7031ZM60.8906 78.5156C58.3594 78.5156 56.2969 76.5 56.3438 73.9688C56.2969 71.4844 58.3594 69.4688 60.8906 69.4688C63.2812 69.4688 65.4375 71.4844 65.4375 73.9688C65.4375 76.5 63.2812 78.5156 60.8906 78.5156Z" fill="#786969"/>
</svg>
