<svg width="122" height="122" viewBox="0 0 122 122" fill="none" xmlns="http://www.w3.org/2000/svg">
<path d="M39.5994 65.01C51.223 44.7276 55.5432 9 60.8423 9C66.1414 9 70.2321 44.7125 81.7312 65.01C93.2089 85.2698 120.81 108.269 118.906 111.562C117.002 114.855 83.5834 102.303 60.4882 102.303C37.3931 102.303 3.71149 117.678 2.07025 111.562C0.428998 105.446 27.9784 85.2879 39.5994 65.01Z" fill="#D8CACA"/>
<path d="M55 81.7031C55 76.1719 56.3125 74.4844 58.8438 72.8438C60.9531 71.4844 62.5469 70.3125 62.5469 68.3906C62.5469 66.6562 61.1406 65.4844 59.4062 65.4844C57.5781 65.4844 55.9844 66.8438 55.9375 68.8594H47.6875C47.7812 61.6406 53.0781 58.5938 59.4531 58.5938C66.4844 58.5938 71.6406 61.7344 71.6406 67.9219C71.6406 71.9062 69.4844 74.2969 66.25 76.1719C63.8125 77.625 62.5938 78.9844 62.5938 81.7031V82.4531H55V81.7031ZM58.8906 93.5156C56.3594 93.5156 54.2969 91.5 54.3438 88.9688C54.2969 86.4844 56.3594 84.4688 58.8906 84.4688C61.2812 84.4688 63.4375 86.4844 63.4375 88.9688C63.4375 91.5 61.2812 93.5156 58.8906 93.5156Z" fill="#786969"/>
</svg>
