<svg width="122" height="122" viewBox="0 0 122 122" fill="none" xmlns="http://www.w3.org/2000/svg">
<circle cx="61" cy="61" r="55" fill="#D8CACA"/>
<path d="M56 66.7031C56 61.1719 57.3125 59.4844 59.8438 57.8438C61.9531 56.4844 63.5469 55.3125 63.5469 53.3906C63.5469 51.6562 62.1406 50.4844 60.4062 50.4844C58.5781 50.4844 56.9844 51.8438 56.9375 53.8594H48.6875C48.7812 46.6406 54.0781 43.5938 60.4531 43.5938C67.4844 43.5938 72.6406 46.7344 72.6406 52.9219C72.6406 56.9062 70.4844 59.2969 67.25 61.1719C64.8125 62.625 63.5938 63.9844 63.5938 66.7031V67.4531H56V66.7031ZM59.8906 78.5156C57.3594 78.5156 55.2969 76.5 55.3438 73.9688C55.2969 71.4844 57.3594 69.4688 59.8906 69.4688C62.2812 69.4688 64.4375 71.4844 64.4375 73.9688C64.4375 76.5 62.2812 78.5156 59.8906 78.5156Z" fill="#786969"/>
</svg>
