<svg width="129" height="129" viewBox="0 0 129 129" fill="none" xmlns="http://www.w3.org/2000/svg">
<path d="M60.8021 8.96707C62.163 5.66703 66.837 5.66703 68.1979 8.96707L76.2991 28.6118C77.1432 30.6586 79.4894 31.6304 81.5335 30.78L101.153 22.6175C104.449 21.2463 107.754 24.5513 106.383 27.8471L98.22 47.4665C97.3696 49.5106 98.3414 51.8568 100.388 52.7009L120.033 60.8021C123.333 62.163 123.333 66.837 120.033 68.1979L100.388 76.2991C98.3414 77.1432 97.3696 79.4894 98.22 81.5335L106.383 101.153C107.754 104.449 104.449 107.754 101.153 106.383L81.5335 98.22C79.4894 97.3696 77.1432 98.3414 76.2991 100.388L68.1979 120.033C66.837 123.333 62.163 123.333 60.8021 120.033L52.7009 100.388C51.8568 98.3414 49.5106 97.3696 47.4665 98.22L27.8471 106.383C24.5513 107.754 21.2463 104.449 22.6175 101.153L30.78 81.5335C31.6304 79.4894 30.6586 77.1432 28.6118 76.2991L8.96707 68.1979C5.66703 66.837 5.66703 62.163 8.96707 60.8021L28.6118 52.7009C30.6586 51.8568 31.6304 49.5106 30.78 47.4665L22.6175 27.8471C21.2463 24.5513 24.5513 21.2463 27.8471 22.6175L47.4665 30.78C49.5106 31.6304 51.8568 30.6586 52.7009 28.6118L60.8021 8.96707Z" fill="url(#paint0_linear_81_107)"/>
<defs>
<linearGradient id="paint0_linear_81_107" x1="64.5" y1="0" x2="64.5" y2="129" gradientUnits="userSpaceOnUse">
<stop stop-color="#FD6F6F"/>
<stop offset="1" stop-color="#FF4019"/>
</linearGradient>
</defs>
</svg>
