<svg width="122" height="122" viewBox="0 0 122 122" fill="none" xmlns="http://www.w3.org/2000/svg">
<path d="M18.7021 26.2502C22.8782 21.7996 29.0082 24.708 33.1577 21.1149C38.2974 16.6644 43.4531 5.46405 53.0902 4.09465C62.7272 2.72525 62.39 16.6644 68.1723 16.6644C73.9545 16.6644 81.3429 12.2138 88.4101 16.6644C95.4772 21.1149 90.6587 28.6466 99.9745 33.4395C109.29 38.2324 117 41.6559 117 47.8182C117 53.9805 111.218 58.4312 110.575 63.5664C109.933 68.7017 116.987 72.8097 115.715 79.3144C114.444 85.8192 110.575 84.7921 106.72 91.2968C102.866 97.8014 105.436 101.225 99.3321 104.55C93.2286 107.875 86.1614 100.882 80.058 104.991C73.9545 109.099 65.2812 118 60.4626 118C55.6441 118 45.0433 104.991 39.2611 104.991C33.4789 104.991 25.448 109.784 18.7021 104.991C11.9561 100.198 15.4897 86.1614 13.8836 81.0262C12.2774 75.8909 2.31909 70.071 4.2465 61.5122C6.17391 52.9535 13.2411 53.6383 15.4897 46.4489C17.7384 39.2595 14.5259 30.7009 18.7021 26.2502Z" fill="url(#paint0_linear_81_108)"/>
<defs>
<linearGradient id="paint0_linear_81_108" x1="60.5" y1="4.58351" x2="60.5" y2="118" gradientUnits="userSpaceOnUse">
<stop stop-color="#9852F8"/>
<stop offset="1" stop-color="#5B23FF"/>
</linearGradient>
</defs>
</svg>
