<svg width="140" height="140" viewBox="0 0 140 140" fill="none" xmlns="http://www.w3.org/2000/svg">
<path d="M53.3194 19.3974C62.0974 9.18979 77.9026 9.18979 86.6806 19.3974L94.1746 28.112C96.4055 30.7063 99.2108 32.7445 102.368 34.0645L112.971 38.4988C125.392 43.6927 130.276 58.7245 123.281 70.2271L117.308 80.0473C115.53 82.9707 114.459 86.2685 114.179 89.6787L113.238 101.134C112.137 114.551 99.35 123.842 86.2486 120.743L75.0635 118.098C71.7338 117.31 68.2662 117.31 64.9365 118.098L53.7514 120.743C40.65 123.842 27.8633 114.551 26.7617 101.134L25.8212 89.6787C25.5412 86.2685 24.4697 82.9707 22.6918 80.0473L16.7195 70.2271C9.724 58.7245 14.6081 43.6927 27.0287 38.4988L37.6325 34.0645C40.7892 32.7445 43.5945 30.7063 45.8254 28.112L53.3194 19.3974Z" fill="url(#paint0_linear_81_105)"/>
<defs>
<linearGradient id="paint0_linear_81_105" x1="70" y1="0" x2="70" y2="140" gradientUnits="userSpaceOnUse">
<stop stop-color="#FFC956"/>
<stop offset="1" stop-color="#FF9442"/>
</linearGradient>
</defs>
</svg>
